# AST/ASF file generated using VICON BodyLanguage
# -----------------------------------------------
:version 1.10
:name VICON
:units
  mass 1.0
  length 0.45
  angle deg
:documentation
   .ast/.asf automatically generated from VICON data using
   VICON BodyBuilder and BodyLanguage model FoxedUp or BRILLIANT.MOD
:root
   order TX TY TZ RX RY RZ
   axis XYZ
   position 0 0 0  
   orientation 0 -0 0 
:bonedata
  begin
     id 1 
     name lhipjoint
     direction 0.432694 -0.693742 0.575759 
     length 2.19277 
     axis 0 -0 0  XYZ
  end
  begin
     id 2 
     name lfemur
     direction 0.34202 -0.939693 0  
     length 6.69022  
     axis 0 -0 20  XYZ
    dof rx ry rz
    limits (-160.0 20.0)
           (-70.0 70.0)
           (-60.0 70.0)
  end
  begin
     id 3 
     name ltibia
     direction 0.34202 -0.939693 0   
     length 6.50337   
     axis 0 -0 20   XYZ
    dof rx
    limits (-10.0 170.0)
  end
  begin
     id 4 
     name lfoot
     direction 0.158999 -0.435969 0.885805   
     length 2.70564   
     axis -90 -1.13533e-015 20   XYZ
    dof rx rz
    limits (-45.0 90.0)
           (-70.0 20.0)
  end
  begin
     id 5 
     name ltoes
     direction -0.00592919 0.00964381 0.999936   
     length 1.29929   
     axis -90 -1.13533e-015 20   XYZ
    dof rx
    limits (-90.0 20.0)
  end
  begin
     id 6 
     name rhipjoint
     direction -0.414359 -0.700339 0.581234   
     length 2.17212  
     axis 0 -0 0  XYZ 
  end
  begin
     id 7 
     name rfemur
     direction -0.34202 -0.939693 0   
     length 7.17659   
     axis 0 -0 -20   XYZ
    dof rx ry rz
    limits (-160.0 20.0)
           (-70.0 70.0)
           (-70.0 60.0)
  end
  begin
     id 8 
     name rtibia
     direction -0.34202 -0.939693 0   
     length 6.36669   
     axis 0 -0 -20   XYZ
    dof rx
    limits (-10.0 170.0)
 end
 begin
     id 9 
     name rfoot
     direction -0.137064 -0.37658 0.916188   
     length 2.22351  
     axis -90 1.13533e-015 -20   XYZ
    dof rx rz
    limits (-45.0 90.0)
           (-20.0 70.0)
  end
  begin
     id 10 
     name rtoes
     direction -0.000784077 -0.00289101 0.999996   
     length 1.09522   
     axis -90 1.13533e-015 -20   XYZ
    dof rx
    limits (-90.0 20.0)
  end
  begin
     id 11 
     name lowerback
     direction -0.0176242 0.984912 -0.172157   
     length 1.65301   
     axis 0 -0 0   XYZ
    dof rx ry rz
    limits (-20.0 45.0)
           (-30.0 30.0)
           (-30.0 30.0)
  end
  begin
     id 12 
     name upperback
     direction -0.00218128 0.998776 -0.0494072   
     length 1.67776   
     axis 0 -0 0   XYZ
    dof rx ry rz
    limits (-20.0 45.0)
           (-30.0 30.0)
           (-30.0 30.0)
  end
  begin
     id 13 
     name thorax
     direction 0.00544186 0.999658 0.0255711   
     length 1.72293   
     axis 0 -0 0   XYZ
    dof rx ry rz
    limits (-20.0 45.0)
           (-30.0 30.0)
           (-30.0 30.0)
  end
  begin
     id 14 
     name lowerneck
     direction -0.105325 0.983841 0.144785   
     length 2.14226   
     axis 0 -0 0   XYZ
    dof rx ry rz
    limits (-20.0 45.0)
           (-30.0 30.0)
           (-30.0 30.0)
  end
  begin
     id 15 
     name upperneck
     direction 0.0547957 0.988053 -0.144041   
     length 2.17508   
     axis 0 -0 0   XYZ
    dof rx ry rz
    limits (-20.0 45.0)
           (-30.0 30.0)
           (-30.0 30.0)
  end
  begin
     id 16
     name head
     direction 0.0247488 0.997534 -0.0656813  
     length 2.20048  
     axis 0 -0 0   XYZ
    dof rx ry rz
    limits (-20.0 45.0)
           (-30.0 30.0)
           (-30.0 30.0)
  end
  begin
     id 17 
     name lclavicle
     direction 0.820559 0.567247 -0.0701026  
     length 4.09615  
     axis 0 -0 0   XYZ
    dof ry rz
    limits (-20.0 10.0)
           (0.0 20.0)
  end
  begin
     id 18 
     name lhumerus
     direction 0.999977 -0.0067566 -9.96392e-005   
     length 4.59333   
     axis -180 -30 -90   XYZ
    dof rx ry rz
    limits (-60.0 90.0)
           (-90.0 90.0)
           (-90.0 90.0)
  end
  begin
     id 19
     name lradius
     direction 1 -4.48982e-011 -2.53425e-027   
     length 2.81151   
     axis -180 -30 -90   XYZ
    dof rx
    limits (-10.0 170.0)
  end
  begin
     id 20
     name lwrist
     direction 1 -4.48939e-011 -7.39254e-028   
     length 1.40576   
     axis 2.56395e-016 90 90   XYZ
    dof ry
    limits (-180.0 0.0)
 end
  begin
     id 21 
     name lhand
     direction 1 -4.48939e-011 -1.47851e-027   
     length 0.895651   
     axis 9.43423e-016 90 90   XYZ
    dof rx rz
    limits (-90.0 90.0)
           (-45.0 45.0)
  end
  begin
     id 22 
     name lfingers
     direction 1 -4.48978e-011 -2.95702e-027   
     length 0.722097   
     axis 1.88685e-015 90 90   XYZ
    dof rx
    limits (0.0 90.0)
  end
  begin
     id 23
     name lthumb
     direction 0.707107 -6.34931e-011 0.707107   
     length 1.03679   
     axis -90 45 -9.86935e-015   XYZ
    dof rx rz
    limits (-45.0 45.0)
           (-45.0 45.0)
  end
  begin
     id 24 
     name rclavicle
     direction -0.831414 0.553102 -0.0531864   
     length 4.24872  
     axis 0 -0 0   XYZ 
    dof ry rz
    limits (-10.0 20.0)
           (-20.0 0.0)
  end
  begin
     id 25 
     name rhumerus
     direction -0.999916 -0.000939607 0.0129331  
     length 4.74834   
     axis -180 30 90   XYZ
    dof rx ry rz
    limits (-90.0 60.0)
           (-90.0 90.0)
           (-90.0 90.0)
  end
  begin
     id 26 
     name rradius
     direction -1 -4.48956e-011 -1.31752e-027   
     length 2.79907   
     axis -180 30 90   XYZ
    dof rx
    limits (-10.0 170.0)
  end
  begin
     id 27 
     name rwrist
     direction -1 -4.4897e-011 -7.39254e-028   
     length 1.39954   
     axis 2.56395e-016 -90 -90   XYZ
    dof ry
    limits (-180.0 0.0)
  end
  begin
     id 28
     name rhand
     direction -0.999997 -0.00250697 0.000800838   
     length 0.953304   
     axis 9.43423e-016 -90 -90   XYZ
    dof rx rz
    limits (-90.0 90.0)
           (-45.0 45.0)
  end
  begin
     id 29
     name rfingers
     direction -1 -4.48954e-011 -2.95702e-027   
     length 0.763342   
     axis 1.88685e-015 -90 -90   XYZ
    dof rx
    limits (0.0 90.0)
  end
  begin
     id 30
     name rthumb
     direction -0.709701 -0.00217037 0.7045   
     length 1.10115   
     axis -90 -45 9.86935e-015   XYZ
    dof rx rz
    limits (-45.0 45.0)
           (-45.0 45.0)
  end
:hierarchy
  begin
    root lhipjoint rhipjoint lowerback
    lhipjoint lfemur
    lfemur ltibia
    ltibia lfoot
    lfoot ltoes
    rhipjoint rfemur
    rfemur rtibia
    rtibia rfoot
    rfoot rtoes
    lowerback upperback
    upperback thorax
    thorax lowerneck lclavicle rclavicle
    lowerneck upperneck
    upperneck head
    lclavicle lhumerus
    lhumerus lradius
    lradius lwrist
    lwrist lhand lthumb
    lhand lfingers
    rclavicle rhumerus
    rhumerus rradius
    rradius rwrist
    rwrist rhand rthumb
    rhand rfingers
  end

#!OML:ASF G:\ViconDB\ViconDB\414\test\team2\shane.ASF
:FULLY-SPECIFIED
:DEGREES
129
root 4.908 15.0807 -17.0115 -2.56345 3.15527 -5.96734
lowerback 17.3246 -0.281293 1.95291
upperback 6.96167 0.0750009 3.17607
thorax -2.27052 0.0284695 2.22807
lowerneck -20.7861 -1.67385 -5.11559
upperneck 4.04583 -1.7514 8.48935
head 4.65653 -0.362703 3.34293
rclavicle -1.43125e-014 -1.11319e-014
rhumerus -64.862 -6.36199 281.422
rradius 21.4458
rwrist 53.1658
rhand -20.1022 -6.83482
rfingers 7.12502
rthumb 6.24118 -36.7229
lclavicle -1.18277e-014 -2.46493e-014
lhumerus -223.389 -178.131 266.794
lradius 9.86388
lwrist -35.7903
lhand -31.5499 9.45894
lfingers 7.12502
lthumb -4.81412 39.3842
rfemur -19.3684 -17.1764 13.0449
rtibia 70.4697
rfoot -27.0764 -9.00777
rtoes -22.5022
lfemur -19.1091 13.7415 -2.94922
ltibia 70.1371
lfoot -40.8058 -10.868
ltoes -22.5267
130
root 4.92056 15.2261 -16.953 -2.77368 3.11205 -6.16385
lowerback 16.8247 -0.337409 2.07234
upperback 6.8421 -0.0013923 3.03776
thorax -2.13403 -0.00552375 2.02396
lowerneck -20.7327 -1.51726 -4.90488
upperneck 4.83432 -1.64347 8.45417
head 4.88624 -0.299325 3.31331
rclavicle -1.799e-014 -1.48095e-014
rhumerus -68.0027 -4.97259 279.029
rradius 21.7822
rwrist 51.7959
rhand -19.8005 -6.3608
rfingers 7.12502
rthumb 6.53244 -36.2401
lclavicle -1.18277e-014 -2.46493e-014
lhumerus -223.389 -178.131 266.794
lradius 9.86388
lwrist -35.7903
lhand -31.5499 9.45894
lfingers 7.12502
lthumb -4.81412 39.3842
rfemur -17.9952 -16.7426 13.2844
rtibia 68.2486
rfoot -25.94 -8.87646
rtoes -22.1101
lfemur -17.6054 13.3514 -2.85231
ltibia 67.8066
lfoot -39.9996 -10.6966
ltoes -21.9306
131
root 4.93833 15.3794 -16.901 -3.18123 2.97053 -6.5571
lowerback 16.5918 -0.379858 2.57486
upperback 6.75425 0.00706104 2.88592
thorax -2.10412 0.00801692 1.57614
lowerneck -20.8287 -1.39773 -4.85679
upperneck 5.70877 -1.57188 8.67331
head 5.17496 -0.233466 3.39118
rclavicle -1.01877e-014 8.44835e-016
rhumerus -71.0297 -4.0322 276.697
rradius 22.4629
rwrist 50.0421
rhand -18.8799 -5.58023
rfingers 7.12502
rthumb 7.42111 -35.4301
lclavicle -1.18277e-014 -2.46493e-014
lhumerus -223.389 -178.131 266.794
lradius 9.86388
lwrist -35.7903
lhand -31.5499 9.45894
lfingers 7.12502
lthumb -4.81412 39.3842
rfemur -16.3686 -16.1412 13.7359
rtibia 65.8325
rfoot -24.7252 -8.88196
rtoes -21.4923
lfemur -15.7674 12.8556 -2.54008
ltibia 65.2441
lfoot -39.027 -10.4996
ltoes -21.5488
132
root 4.95698 15.5394 -16.8534 -3.66782 3.08682 -6.85306
lowerback 16.2542 -0.455626 2.85097
upperback 6.83243 -0.0685247 2.91565
thorax -1.84222 -0.0235056 1.46176
lowerneck -21.1329 -1.32485 -5.03012
upperneck 6.6501 -1.47533 8.66032
head 5.51359 -0.173235 3.43653
rclavicle 8.94531e-016 -2.35311e-014
rhumerus -73.488 -3.67016 275.668
rradius 23.0179
rwrist 49.2114
rhand -17.6313 -4.55145
rfingers 7.12502
rthumb 8.62612 -34.3552
lclavicle -1.18277e-014 -2.46493e-014
lhumerus -223.389 -178.131 266.794
lradius 9.86388
lwrist -35.7903
lhand -31.5499 9.45894
lfingers 7.12502
lthumb -4.81412 39.3842
rfemur -14.5186 -15.783 13.9969
rtibia 63.2377
rfoot -23.4897 -8.7321
rtoes -20.7416
lfemur -13.9053 12.2429 -2.38551
ltibia 62.4937
lfoot -37.9475 -10.2572
ltoes -21.1197
133
root 4.97561 15.7029 -16.8093 -4.00557 3.03124 -7.10321
lowerback 15.9991 -0.500905 3.28517
upperback 6.70974 -0.0776225 2.76077
thorax -1.83696 -0.0193343 1.05367
lowerneck -21.0962 -1.21486 -4.95897
upperneck 7.44889 -1.40455 8.70488
head 5.75709 -0.123952 3.45545
rclavicle 5.00068e-015 3.00662e-015
rhumerus -76.0076 -3.35949 274.101
rradius 23.7097
rwrist 48.6318
rhand -16.3233 -4.52508
rfingers 7.12502
rthumb 9.88829 -34.2729
lclavicle -1.18277e-014 -2.46493e-014
lhumerus -223.389 -178.131 266.794
lradius 9.86388
lwrist -35.7903
lhand -31.5499 9.45894
lfingers 7.12502
lthumb -4.81412 39.3842
rfemur -12.8439 -15.2817 14.2963
rtibia 60.5283
rfoot -22.1761 -8.59373
rtoes -20.1271
lfemur -12.119 11.6953 -2.33917
ltibia 59.6549
lfoot -36.8092 -9.87722
ltoes -20.6115
134
root 4.99084 15.8621 -16.7692 -4.30132 2.82574 -7.11305
lowerback 15.5859 -0.377186 3.26763
upperback 6.70856 0.0574797 2.69523
thorax -1.61965 0.0504449 0.968924
lowerneck -21.2249 -1.17399 -5.0536
upperneck 8.17014 -1.35855 8.66102
head 6.00394 -0.0968127 3.47126
rclavicle 8.03835e-015 -3.03892e-014
rhumerus -77.855 -3.45391 273.571
rradius 24.1603
rwrist 47.6824
rhand -14.7528 -3.89724
rfingers 7.12502
rthumb 11.4032 -33.5672
lclavicle -1.18277e-014 -2.46493e-014
lhumerus -223.389 -178.131 266.794
lradius 9.86388
lwrist -35.7903
lhand -31.5499 9.45894
lfingers 7.12502
lthumb -4.81412 39.3842
rfemur -11.2168 -14.8377 14.3036
rtibia 57.7956
rfoot -20.9225 -8.21715
rtoes -19.5013
lfemur -10.2931 11.3044 -2.55911
ltibia 56.7979
lfoot -35.6829 -9.2935
ltoes -20.2825
135
root 5.00941 16.0158 -16.736 -4.59666 2.78447 -7.24955
lowerback 15.3331 -0.381124 3.45192
upperback 6.62762 0.0650743 2.60775
thorax -1.5704 0.0586548 0.770846
lowerneck -21.2361 -1.07985 -5.04646
upperneck 8.78164 -1.27132 8.65778
head 6.19522 -0.0472529 3.48675
rclavicle -1.27471e-014 -2.11209e-014
rhumerus -79.5502 -3.17316 272.303
rradius 24.924
rwrist 46.0077
rhand -12.6171 -4.12909
rfingers 7.12502
rthumb 13.4623 -33.674
lclavicle -1.18277e-014 -2.46493e-014
lhumerus -223.389 -178.131 266.794
lradius 9.86388
lwrist -35.7903
lhand -31.5499 9.45894
lfingers 7.12502
lthumb -4.81412 39.3842
rfemur -9.59638 -14.2753 14.5272
rtibia 55.0259
rfoot -19.4773 -8.27662
rtoes -19.0926
lfemur -8.62795 10.9585 -2.62043
ltibia 54.0181
lfoot -34.371 -9.06792
ltoes -19.9002
136
root 5.01983 16.1643 -16.7096 -4.7902 2.71457 -7.42017
lowerback 15.0206 -0.367691 3.48529
upperback 6.56918 0.0727085 2.62234
thorax -1.46621 0.0635608 0.764606
lowerneck -21.5085 -0.999658 -5.24502
upperneck 9.52667 -1.16192 8.78107
head 6.47279 0.0229881 3.58563
rclavicle -4.27387e-015 -3.49861e-014
rhumerus -80.6289 -2.9971 271.902
rradius 25.1862
rwrist 44.9313
rhand -11.0113 -3.76635
rfingers 7.12502
rthumb 15.0096 -33.2023
lclavicle -1.18277e-014 -2.46493e-014
lhumerus -223.389 -178.131 266.794
lradius 9.86388
lwrist -35.7903
lhand -31.5499 9.45894
lfingers 7.12502
lthumb -4.81412 39.3842
rfemur -8.1459 -13.851 14.82
rtibia 52.3052
rfoot -18.1118 -8.10599
rtoes -18.2726
lfemur -7.15283 10.5773 -2.63359
ltibia 51.3586
lfoot -32.9215 -8.82781
ltoes -19.6089
137
root 5.03074 16.3165 -16.682 -4.94898 2.68206 -7.59732
lowerback 14.485 -0.299193 3.71829
upperback 6.59507 0.158 2.45027
thorax -1.15126 0.116754 0.438351
lowerneck -21.844 -0.961448 -4.86523
upperneck 10.2163 -1.24085 8.70902
head 6.75384 0.0091982 3.50416
rclavicle -4.22417e-015 3.47873e-014
rhumerus -81.4471 -2.84485 270.411
rradius 25.7866
rwrist 43.2804
rhand -9.31655 -4.39898
rfingers 7.12502
rthumb 16.6417 -33.7055
lclavicle -1.18277e-014 -2.46493e-014
lhumerus -223.389 -178.131 266.794
lradius 9.86388
lwrist -35.7903
lhand -31.5499 9.45894
lfingers 7.12502
lthumb -4.81412 39.3842
rfemur -6.71511 -13.4534 15.1416
rtibia 49.5715
rfoot -16.6669 -8.06312
rtoes -17.6934
lfemur -5.79712 10.2023 -2.63186
ltibia 48.853
lfoot -31.3585 -8.71558
ltoes -19.3033
138
root 5.0384 16.4605 -16.6604 -4.98778 2.63156 -7.84937
lowerback 13.9644 -0.257777 3.82879
upperback 6.5164 0.199404 2.43631
thorax -0.955003 0.141681 0.354449
lowerneck -21.8945 -0.912208 -4.88217
upperneck 10.7441 -1.2178 8.81142
head 6.93361 0.0364387 3.55288
rclavicle 9.64106e-015 9.93923e-015
rhumerus -82.0221 -2.59951 269.943
rradius 26.1767
rwrist 42.4589
rhand -7.89161 -4.25399
rfingers 7.12502
rthumb 18.0131 -33.4398
lclavicle -1.18277e-014 -2.46493e-014
lhumerus -223.389 -178.131 266.794
lradius 9.86388
lwrist -35.7903
lhand -31.5499 9.45894
lfingers 7.12502
lthumb -4.81412 39.3842
rfemur -5.47179 -13.1676 15.5984
rtibia 46.8891
rfoot -15.0998 -8.08979
rtoes -17.2307
lfemur -4.69184 10.0541 -2.4858
ltibia 46.5228
lfoot -29.6976 -8.79542
ltoes -19.3183
139
root 5.04522 16.6028 -16.6389 -4.97852 2.63415 -8.03577
lowerback 13.3956 -0.180795 3.9444
upperback 6.47064 0.281909 2.35876
thorax -0.695877 0.189647 0.196686
lowerneck -22.2497 -0.956969 -4.96335
upperneck 11.4171 -1.34484 9.16133
head 7.22668 0.0214955 3.68391
rclavicle 1.9133e-014 2.34566e-014
rhumerus -82.2724 -2.27857 268.868
rradius 26.5485
rwrist 41.6723
rhand -7.36262 -4.73248
rfingers 7.12502
rthumb 18.522 -33.8707
lclavicle -1.18277e-014 -2.46493e-014
lhumerus -223.389 -178.131 266.794
lradius 9.86388
lwrist -35.7903
lhand -31.5499 9.45894
lfingers 7.12502
lthumb -4.81412 39.3842
rfemur -4.23216 -12.9163 15.9694
rtibia 44.2348
rfoot -13.6279 -8.0543
rtoes -16.4059
lfemur -3.70989 9.80267 -2.45679
ltibia 44.3837
lfoot -28.084 -8.80298
ltoes -19.1347
140
root 5.05897 16.738 -16.6098 -5.01776 2.5737 -7.94756
lowerback 12.7512 -0.115822 3.79603
upperback 6.53301 0.309023 2.25861
thorax -0.285544 0.207828 0.172904
lowerneck -22.7106 -0.955074 -5.18778
upperneck 12.0794 -1.35243 9.44662
head 7.52608 0.0539352 3.8347
rclavicle 4.27387e-015 -1.37161e-014
rhumerus -82.3351 -1.53104 267.822
rradius 27.1548
rwrist 41.2269
rhand -7.13399 -4.9656
rfingers 7.12502
rthumb 18.7419 -34.0827
lclavicle -1.18277e-014 -2.46493e-014
lhumerus -223.389 -178.131 266.794
lradius 9.86388
lwrist -35.7903
lhand -31.5499 9.45894
lfingers 7.12502
lthumb -4.81412 39.3842
rfemur -2.92257 -12.7091 15.9055
rtibia 41.6591
rfoot -12.2648 -7.93718
rtoes -15.3636
lfemur -2.67567 9.62076 -2.74344
ltibia 42.4467
lfoot -26.5536 -8.75648
ltoes -19.1319
